<mxfile host="app.diagrams.net" modified="2023-01-28T15:14:16.630Z" agent="5.0 (Windows NT 10.0; Win64; x64) AppleWebKit/537.36 (KHTML, like Gecko) Chrome/109.0.0.0 Safari/537.36" etag="MJ4d8YdV0DU_7NM_R3mS" version="20.8.13" type="github">
  <diagram name="第 1 页" id="SK5onqbqt3w3e6Erg7ZF">
    <mxGraphModel dx="1052" dy="642" grid="1" gridSize="10" guides="1" tooltips="1" connect="1" arrows="1" fold="1" page="1" pageScale="1" pageWidth="827" pageHeight="1169" math="0" shadow="0">
      <root>
        <mxCell id="0" />
        <mxCell id="1" parent="0" />
        <mxCell id="h27i9BGJYEJWcCs8Se6V-23" value="" style="edgeStyle=orthogonalEdgeStyle;rounded=0;orthogonalLoop=1;jettySize=auto;html=1;fontFamily=Times New Roman;fontSize=16;fontColor=#000000;" edge="1" parent="1" source="h27i9BGJYEJWcCs8Se6V-21" target="h27i9BGJYEJWcCs8Se6V-22">
          <mxGeometry relative="1" as="geometry" />
        </mxCell>
        <mxCell id="h27i9BGJYEJWcCs8Se6V-21" value="PCF Parser" style="rounded=0;whiteSpace=wrap;html=1;labelBackgroundColor=#ffffff;fontFamily=Times New Roman;fontSize=16;fontColor=#000000;" vertex="1" parent="1">
          <mxGeometry x="200" y="280" width="90" height="50" as="geometry" />
        </mxCell>
        <mxCell id="h27i9BGJYEJWcCs8Se6V-25" value="" style="edgeStyle=orthogonalEdgeStyle;rounded=0;orthogonalLoop=1;jettySize=auto;html=1;fontFamily=Times New Roman;fontSize=16;fontColor=#000000;" edge="1" parent="1" source="h27i9BGJYEJWcCs8Se6V-22" target="h27i9BGJYEJWcCs8Se6V-24">
          <mxGeometry relative="1" as="geometry" />
        </mxCell>
        <mxCell id="h27i9BGJYEJWcCs8Se6V-22" value="PCF&amp;nbsp;→ CPS" style="rounded=0;whiteSpace=wrap;html=1;labelBackgroundColor=#ffffff;fontFamily=Times New Roman;fontSize=16;fontColor=#000000;" vertex="1" parent="1">
          <mxGeometry x="320" y="280" width="100" height="50" as="geometry" />
        </mxCell>
        <mxCell id="h27i9BGJYEJWcCs8Se6V-28" value="" style="edgeStyle=orthogonalEdgeStyle;rounded=0;orthogonalLoop=1;jettySize=auto;html=1;fontFamily=Times New Roman;fontSize=16;fontColor=#000000;" edge="1" parent="1" source="h27i9BGJYEJWcCs8Se6V-24" target="h27i9BGJYEJWcCs8Se6V-27">
          <mxGeometry relative="1" as="geometry" />
        </mxCell>
        <mxCell id="h27i9BGJYEJWcCs8Se6V-24" value="CPS → SSA" style="rounded=0;whiteSpace=wrap;html=1;labelBackgroundColor=#ffffff;fontFamily=Times New Roman;fontSize=16;fontColor=#000000;" vertex="1" parent="1">
          <mxGeometry x="450" y="280" width="100" height="50" as="geometry" />
        </mxCell>
        <mxCell id="h27i9BGJYEJWcCs8Se6V-30" value="" style="edgeStyle=orthogonalEdgeStyle;rounded=0;orthogonalLoop=1;jettySize=auto;html=1;fontFamily=Times New Roman;fontSize=16;fontColor=#000000;" edge="1" parent="1" source="h27i9BGJYEJWcCs8Se6V-27" target="h27i9BGJYEJWcCs8Se6V-29">
          <mxGeometry relative="1" as="geometry" />
        </mxCell>
        <mxCell id="h27i9BGJYEJWcCs8Se6V-27" value="CPS → SSA" style="rounded=0;whiteSpace=wrap;html=1;labelBackgroundColor=#ffffff;fontFamily=Times New Roman;fontSize=16;fontColor=#000000;" vertex="1" parent="1">
          <mxGeometry x="580" y="280" width="100" height="50" as="geometry" />
        </mxCell>
        <mxCell id="h27i9BGJYEJWcCs8Se6V-32" value="" style="edgeStyle=orthogonalEdgeStyle;rounded=0;orthogonalLoop=1;jettySize=auto;html=1;fontFamily=Times New Roman;fontSize=16;fontColor=#000000;" edge="1" parent="1" source="h27i9BGJYEJWcCs8Se6V-29">
          <mxGeometry relative="1" as="geometry">
            <mxPoint x="550" y="385" as="targetPoint" />
          </mxGeometry>
        </mxCell>
        <mxCell id="h27i9BGJYEJWcCs8Se6V-29" value="SSA → Vellvm AST" style="rounded=0;whiteSpace=wrap;html=1;labelBackgroundColor=#ffffff;fontFamily=Times New Roman;fontSize=16;fontColor=#000000;" vertex="1" parent="1">
          <mxGeometry x="580" y="360" width="100" height="50" as="geometry" />
        </mxCell>
        <mxCell id="h27i9BGJYEJWcCs8Se6V-34" value="" style="edgeStyle=orthogonalEdgeStyle;rounded=0;orthogonalLoop=1;jettySize=auto;html=1;fontFamily=Times New Roman;fontSize=16;fontColor=#000000;" edge="1" parent="1" source="h27i9BGJYEJWcCs8Se6V-33" target="h27i9BGJYEJWcCs8Se6V-21">
          <mxGeometry relative="1" as="geometry" />
        </mxCell>
        <mxCell id="h27i9BGJYEJWcCs8Se6V-33" value="PCF Program Text" style="text;html=1;strokeColor=none;fillColor=none;align=center;verticalAlign=middle;whiteSpace=wrap;rounded=0;fontSize=16;fontFamily=Times New Roman;fontColor=#000000;" vertex="1" parent="1">
          <mxGeometry x="110" y="290" width="60" height="30" as="geometry" />
        </mxCell>
        <mxCell id="h27i9BGJYEJWcCs8Se6V-35" value="LLVM IR" style="text;html=1;strokeColor=none;fillColor=none;align=center;verticalAlign=middle;whiteSpace=wrap;rounded=0;fontSize=16;fontFamily=Times New Roman;fontColor=#000000;" vertex="1" parent="1">
          <mxGeometry x="470" y="370" width="80" height="30" as="geometry" />
        </mxCell>
      </root>
    </mxGraphModel>
  </diagram>
</mxfile>
